<svg id="ic_layout_on" data-name="ic/layout/on" xmlns="http://www.w3.org/2000/svg" width="18" height="18" viewBox="0 0 18 18">
  <path id="ic-layout-right-menu" d="M15.545,18H2.455A2.457,2.457,0,0,1,0,15.545V2.455A2.457,2.457,0,0,1,2.455,0H15.545A2.457,2.457,0,0,1,18,2.455V8.181h0v7.364A2.457,2.457,0,0,1,15.545,18Zm0-1.637a.817.817,0,0,0,.818-.818V8.182H11.454v8.182ZM1.636,15.545a.819.819,0,0,0,.818.818H9.818V8.182H1.636Zm0-13.091V6.545H16.363V2.455a.819.819,0,0,0-.818-.818H2.455A.819.819,0,0,0,1.636,2.455Z" fill="#fff"/>
</svg>
