<svg id="ic_user_off" data-name="ic/user/off" xmlns="http://www.w3.org/2000/svg" width="18" height="18" viewBox="0 0 18 18">
  <path id="ic-actions-user" d="M17.1,18a.863.863,0,0,1-.9-.818v-.818c0-3.609-3.23-6.545-7.2-6.545s-7.2,2.936-7.2,6.545v.818A.863.863,0,0,1,.9,18a.863.863,0,0,1-.9-.818v-.818a7.639,7.639,0,0,1,1.554-4.587A8.862,8.862,0,0,1,5.67,8.772,4.648,4.648,0,0,1,3.9,3.307,5.391,5.391,0,0,1,9,0a5.391,5.391,0,0,1,5.1,3.307A4.647,4.647,0,0,1,12.33,8.772a8.862,8.862,0,0,1,4.116,3.005A7.639,7.639,0,0,1,18,16.364v.818A.863.863,0,0,1,17.1,18ZM9,1.639A3.452,3.452,0,0,0,5.4,4.911,3.11,3.11,0,0,0,6.454,7.225,3.767,3.767,0,0,0,9,8.183a3.452,3.452,0,0,0,3.6-3.272A3.452,3.452,0,0,0,9,1.639Z" fill="rgba(255,255,255,0.74)"/>
</svg>
